<?xml version="1.0" encoding="UTF-8"?>
<!DOCTYPE svg PUBLIC "-//W3C//DTD SVG 1.1//EN" "http://www.w3.org/Graphics/SVG/1.1/DTD/svg11.dtd">
<!-- Creator: CorelDRAW X7 -->
<svg xmlns="http://www.w3.org/2000/svg" xml:space="preserve" width="1112px" height="671px" version="1.1" style="shape-rendering:geometricPrecision; text-rendering:geometricPrecision; image-rendering:optimizeQuality; fill-rule:evenodd; clip-rule:evenodd"
viewBox="0 0 563 340"
 xmlns:xlink="http://www.w3.org/1999/xlink">
 <defs>
  <style type="text/css">
   <![CDATA[
    .str0 {stroke:#2B2A29;stroke-width:1.05376}
    .fil1 {fill:#2B2A29}
    .fil0 {fill:#2B2A29;fill-rule:nonzero}
   ]]>
  </style>
 </defs>
 <g id="Layer_x0020_1">
  <metadata id="CorelCorpID_0Corel-Layer"/>
  <path class="fil0" d="M133 0l0 44c-1,0 -2,0 -4,-1 -2,0 -3,0 -3,0 -12,0 -20,2 -24,7 -4,4 -6,13 -6,26l0 43c0,17 -3,29 -8,36 -6,7 -16,12 -30,15 14,3 24,8 30,15 5,7 8,19 8,36l0 43c0,13 2,22 6,26 4,4 12,6 23,6 1,0 2,0 4,0 2,0 3,0 4,0l0 43c-2,0 -4,0 -8,0 -3,0 -5,1 -7,1 -13,0 -23,-1 -32,-3 -9,-1 -16,-3 -21,-6 -8,-4 -12,-9 -15,-16 -3,-7 -4,-18 -4,-35l0 -45c0,-16 -3,-27 -9,-34 -6,-7 -16,-10 -31,-10 0,0 -1,0 -3,0 -1,1 -2,1 -3,1l0 -44c1,0 2,0 3,0 2,1 3,1 3,1 15,0 25,-4 31,-10 6,-7 9,-18 9,-34l0 -46c0,-16 1,-27 4,-34 3,-7 8,-12 15,-16 5,-3 12,-5 21,-7 9,-1 20,-2 33,-2 1,0 3,0 6,0 4,0 6,0 8,0z"/>
  <path class="fil0" d="M430 0c1,0 4,0 7,0 3,0 6,0 7,0 13,0 24,1 32,2 9,2 16,4 22,7 7,4 12,9 15,16 3,7 4,18 4,34l0 46c0,16 3,27 9,34 6,6 16,10 30,10 1,0 2,0 3,-1 2,0 3,0 4,0l0 44c-1,0 -2,0 -4,-1 -1,0 -2,0 -3,0 -14,0 -24,4 -30,10 -6,7 -9,18 -9,34l0 45c0,17 -1,28 -4,35 -3,7 -8,12 -15,16 -6,3 -12,5 -20,6 -9,2 -19,3 -32,3 -2,0 -5,-1 -8,-1 -4,0 -6,0 -8,0l0 -43c1,0 2,0 4,0 1,0 3,0 3,0 12,0 20,-2 24,-6 4,-4 6,-13 6,-26l0 -43c0,-17 2,-29 8,-36 5,-7 15,-12 29,-15 -14,-3 -24,-8 -29,-15 -6,-7 -8,-19 -8,-36l0 -43c0,-13 -2,-22 -6,-26 -4,-5 -12,-7 -23,-7 -1,0 -2,0 -4,0 -2,1 -3,1 -4,1l0 -44z"/>
  <path class="fil1 str0" d="M122 257l318 0 1 -109 -14 -1 -1 -32 -38 -1 0 24 -13 0 -1 -74 -30 0 1 25 -22 1 0 29 -13 0 -2 -77 -56 0 0 76 -19 0 0 -58 -31 0 0 57 -11 0 0 -25 -42 0 -1 55 -26 1 0 109zm37 -21l-15 0 0 -57 16 0c7,0 11,0 14,1 2,0 4,1 6,3 2,2 4,4 5,6 1,3 2,6 2,9 0,3 -1,6 -2,9 -1,3 -3,5 -5,6 -1,2 -3,3 -5,3 -3,1 -6,1 -11,1l-3 0 -2 0 0 19zm0 -32l3 0c3,0 6,0 7,-1 2,-1 3,-3 3,-5 0,-3 -1,-4 -3,-5 -1,-1 -4,-2 -7,-2l-3 0 0 13zm38 32l0 -40 13 0 0 10c1,-4 3,-6 5,-8 3,-2 6,-2 9,-2 1,0 1,0 2,0 0,0 1,0 1,0l-1 12c-1,0 -2,0 -2,0 -1,0 -2,0 -3,0 -3,0 -6,1 -8,3 -1,2 -2,5 -2,8l0 17 -14 0zm66 -20c0,-3 0,-5 -2,-7 -1,-1 -3,-2 -6,-2 -2,0 -4,1 -6,2 -1,2 -2,4 -2,7 0,3 1,5 2,7 2,2 4,3 6,3 3,0 5,-1 6,-3 2,-2 2,-4 2,-7zm14 0c0,3 0,6 -1,8 -1,3 -3,5 -5,7 -2,2 -5,4 -7,5 -3,1 -6,1 -9,1 -3,0 -6,0 -8,-1 -3,-1 -5,-3 -7,-5 -2,-2 -4,-4 -5,-7 -1,-2 -2,-5 -2,-8 0,-3 1,-5 2,-8 1,-3 3,-5 5,-7 2,-2 4,-3 7,-4 2,-1 5,-2 8,-2 3,0 6,1 9,2 2,1 5,2 7,4 2,2 4,5 5,7 1,3 1,5 1,8zm40 -7c-2,-1 -3,-2 -4,-2 -1,-1 -3,-1 -4,-1 -3,0 -5,1 -7,3 -1,1 -2,4 -2,7 0,3 1,5 2,7 2,2 4,3 7,3 2,0 3,0 4,-1 1,-1 3,-1 4,-3l0 12c-2,1 -4,2 -5,3 -2,0 -4,0 -5,0 -7,0 -11,-2 -15,-6 -4,-3 -6,-9 -6,-15 0,-6 2,-11 6,-15 4,-4 9,-6 15,-6 2,0 3,0 5,1 2,0 3,1 5,2l0 11zm11 -25c0,-2 1,-4 2,-5 2,-2 4,-2 6,-2 2,0 4,0 5,2 2,1 2,3 2,5 0,2 0,4 -2,6 -1,1 -3,2 -5,2 -2,0 -4,-1 -6,-2 -1,-2 -2,-4 -2,-6zm1 52l0 -40 14 0 0 40 -14 0zm30 0l0 -30 -6 0 0 -10 6 0 0 -11 13 0 0 11 6 0 0 10 -6 0 0 30 -13 0zm27 17l11 -23 -16 -34 15 0 6 15c0,1 1,2 1,3 0,1 0,2 1,3 0,-1 0,-2 0,-3 1,-1 1,-2 1,-3l6 -15 15 0 -25 57 -15 0zm13 -111l7 0 0 12 -7 0 0 -12zm12 -20l7 0 0 12 -7 0 0 -12zm-12 0l7 0 0 12 -7 0 0 -12zm-50 -31l7 0 0 12 -7 0 0 -12zm12 -21l7 0 0 12 -7 0 0 -12zm-12 0l7 0 0 12 -7 0 0 -12zm-17 88l7 0 0 12 -7 0 0 -12zm12 -20l7 0 0 12 -7 0 0 -12zm-12 0l7 0 0 12 -7 0 0 -12zm-57 0l7 0 0 12 -7 0 0 -12zm12 -20l7 0 0 12 -7 0 0 -12zm-12 0l7 0 0 12 -7 0 0 -12zm-20 -36l7 0 0 12 -7 0 0 -12zm0 -16l7 0 0 12 -7 0 0 -12zm14 0l7 0 0 12 -7 0 0 -12zm14 -19l7 0 0 12 -7 0 0 -12zm-14 0l7 0 0 12 -7 0 0 -12zm-12 0l7 0 0 12 -7 0 0 -12zm-48 42l7 0 0 12 -7 0 0 -12zm13 -18l7 0 0 12 -7 0 0 -12zm-12 1l7 0 0 12 -7 0 0 -12zm-25 77l7 0 0 12 -7 0 0 -12zm12 -20l7 0 0 12 -7 0 0 -12zm-12 0l7 0 0 12 -7 0 0 -12zm-16 -28l7 0 0 12 -7 0 0 -12zm-13 0l7 0 0 12 -7 0 0 -12z"/>
 </g>
</svg>
